<svg width="61" height="60" fill="none" xmlns="http://www.w3.org/2000/svg">
  <g clip-path="url(#a)">
    <path
      d="M26 36.5495c.8025 2.4577 2.5838 3.1968 4.9993 2.8851 1.7998-.2322 2.537-2.0209 3.2438-3.4346"
      stroke="#000"
      stroke-width="3"
      stroke-linecap="round"
    />
    <path
      d="M39.0521 1.24332c-.6677 4.09267-4.21 7.2176-8.4896 7.2176-4.2813 0-7.8229-3.12493-8.4911-7.2176"
      fill="#E23127"
    />
    <path
      d="M30.5625 8.46092c4.2796 0 7.8219-3.12493 8.4896-7.2176-2.6901-.804667-5.539-1.24333144-8.4906-1.24333144-2.9522 0-5.8011.43866444-8.4901 1.24333144.6682 4.09267 4.2098 7.2176 8.4911 7.2176ZM30.5625 50.6626c-4.2813 0-7.8229 3.1265-8.4911 7.2187 2.689.8047 5.5379 1.2438 8.4901 1.2438 2.9516 0 5.8005-.4391 8.4906-1.2438-.6677-4.0922-4.21-7.2187-8.4896-7.2187ZM15.6417 14.6417c3.0276-3.027 3.3208-7.74317.8974-11.1093-5.0792 2.74213-9.26463 6.9285-12.00681 12.0077 3.36614 2.4219 8.08071 2.1292 11.10941-.8984ZM45.4818 44.4819c-3.0276 3.0286-3.3203 7.7432-.8984 11.1093 5.0806-2.7411 9.2656-6.9271 12.0078-12.0079-3.3661-2.4208-8.0824-2.1276-11.1094.8986ZM9.46251 29.5625c-.00158-4.2812-3.12762-7.8218-7.21928-8.4896C1.4375 23.7631 1 26.6105 1 29.5625c0 2.9516.4375 5.7995 1.24323 8.4896 4.09166-.6682 7.2177-4.2082 7.21928-8.4896ZM58.8803 21.0715c-4.0928.6692-7.2172 4.2098-7.2172 8.491 0 4.2814 3.1244 7.8204 7.2172 8.4907.8047-2.6901 1.2437-5.5391 1.2437-8.4907 0-2.953-.439-5.801-1.2437-8.491ZM15.6417 44.4819c-3.0287-3.0262-7.74327-3.3194-11.10941-.8975 2.74218 5.0808 6.92761 9.2657 12.00681 12.0068 2.4234-3.3661 2.1302-8.0807-.8974-11.1093ZM45.4818 14.6417c3.027 3.0276 7.7422 3.3203 11.1094.9-2.7422-5.0808-6.9272-9.26718-12.0078-12.00932-2.4219 3.3672-2.1292 8.08062.8984 11.10932Z"
      fill="#E23127"
    />
    <path
      d="M24.4469 20.7224c0-1.5037-1.2193-2.7224-2.7229-2.7224C20.2199 18 19 19.2187 19 20.7224c0 1.5041 1.2199 2.7239 2.724 2.7239 1.5036 0 2.7229-1.2198 2.7229-2.7239ZM42.4469 20.7224c0-1.5037-1.2193-2.7224-2.7229-2.7224C38.2199 18 37 19.2187 37 20.7224c0 1.5041 1.2199 2.7239 2.724 2.7239 1.5036 0 2.7229-1.2198 2.7229-2.7239Z"
      fill="#000"
    />
    <path
      fill-rule="evenodd"
      clip-rule="evenodd"
      d="M25.1875 59.6115c4.6505.7558 9.4137.4056 13.9037-1.0222l-1.21-3.8052C35.3953 55.5739 32.7474 56 30 56 15.6406 56 4 44.3594 4 30S15.6406 4 30 4c2.6983 0 5.3006.41103 7.7476 1.1739l1.1896-3.81175C34.4395-.0414605 29.6745-.365982 25.0281.414868c-4.6464.780852-9.0436 2.645112-12.8354 5.441792C8.40095 8.65334 5.3212 12.3038 3.20293 16.5123 1.08466 20.7209-.0125752 25.3692.00010873 30.0808.0127926 34.7923 1.13503 39.4347 3.27593 43.6317c2.1409 4.1971 5.24026 7.8309 9.04707 10.6072 3.8067 2.7762 8.2139 4.6168 12.8645 5.3726Z"
      fill="#E23127"
    />
  </g>
  <defs>
    <clipPath id="a">
      <path fill="#fff" d="M0 0h60.124v60H0z" />
    </clipPath>
  </defs>
</svg>
